HIERARCHY
ROOT Hips
{
  OFFSET -35.4901 99.2528 17.4586
  CHANNELS 6 Xposition Yposition Zposition Zrotation Xrotation Yrotation
  JOINT LeftUpLeg
  {
    OFFSET 8.64259 1.95398 -2.38835
    CHANNELS 3 Zrotation Xrotation Yrotation
    JOINT LeftLeg
    {
      OFFSET 43.7702 0 0
      CHANNELS 3 Zrotation Xrotation Yrotation
      JOINT LeftFoot
      {
        OFFSET 40.6238 0 0
        CHANNELS 3 Zrotation Xrotation Yrotation
        JOINT LeftToeBase
        {
          OFFSET 12.7242 0 0
          CHANNELS 3 Zrotation Xrotation Yrotation
          End Site
          {
            OFFSET 0 0 0
          }
        }
      }
    }
  }
  JOINT RightUpLeg
  {
    OFFSET -8.2249 1.95398 -2.59336
    CHANNELS 3 Zrotation Xrotation Yrotation
    JOINT RightLeg
    {
      OFFSET 43.5653 0 0
      CHANNELS 3 Zrotation Xrotation Yrotation
      JOINT RightFoot
      {
        OFFSET 40.6238 0 0
        CHANNELS 3 Zrotation Xrotation Yrotation
        JOINT RightToeBase
        {
          OFFSET 12.7242 0 0
          CHANNELS 3 Zrotation Xrotation Yrotation
          End Site
          {
            OFFSET 0 0 0
          }
        }
      }
    }
  }
  JOINT Spine
  {
    OFFSET 0.165834 0.87714 6.61349
    CHANNELS 3 Zrotation Xrotation Yrotation
    JOINT Spine1
    {
      OFFSET 7.38963 1.71661e-005 0
      CHANNELS 3 Zrotation Xrotation Yrotation
      JOINT Spine2
      {
        OFFSET 11.9445 1.14441e-005 0
        CHANNELS 3 Zrotation Xrotation Yrotation
        JOINT Spine3
        {
          OFFSET 14.7254 4.19617e-005 0
          CHANNELS 3 Zrotation Xrotation Yrotation
          JOINT Spine4
          {
            OFFSET 10.9679 0 0
            CHANNELS 3 Zrotation Xrotation Yrotation
            JOINT RightShoulder
            {
              OFFSET 2.46616 -1.6653 3.69651
              CHANNELS 3 Zrotation Xrotation Yrotation
              JOINT RightArm
              {
                OFFSET 13.0012 0 0
                CHANNELS 3 Zrotation Xrotation Yrotation
                JOINT RightForeArm
                {
                  OFFSET 28.7848 1.52588e-005 0
                  CHANNELS 3 Zrotation Xrotation Yrotation
                  JOINT RightHand
                  {
                    OFFSET 26.5688 1.52588e-005 0
                    CHANNELS 3 Zrotation Xrotation Yrotation
                    End Site
                    {
                      OFFSET 0 0 0
                    }
                  }
                }
              }
            }
            JOINT LeftShoulder
            {
              OFFSET 2.38034 -1.29275 -3.7523
              CHANNELS 3 Zrotation Xrotation Yrotation
              JOINT LeftArm
              {
                OFFSET 16.3182 6.10351e-005 0
                CHANNELS 3 Zrotation Xrotation Yrotation
                JOINT LeftForeArm
                {
                  OFFSET 27.0901 0 0
                  CHANNELS 3 Zrotation Xrotation Yrotation
                  JOINT LeftHand
                  {
                    OFFSET 24.5451 1.52588e-005 0
                    CHANNELS 3 Zrotation Xrotation Yrotation
                    End Site
                    {
                      OFFSET 0 0 0
                    }
                  }
                }
              }
            }
            JOINT Neck
            {
              OFFSET 5.0226 -0.0266342 0
              CHANNELS 3 Zrotation Xrotation Yrotation
              JOINT Head
              {
                OFFSET 6.69364 2.86102e-005 0
                CHANNELS 3 Zrotation Xrotation Yrotation
                End Site
                {
                  OFFSET 0 0 0
                }
              }
            }
          }
        }
      }
    }
  }
}
MOTION
Frames:	6
Frame Time:	0.0416667
26.6228 99.6633 21.4942 -142.859 -82.1601 -143.838 -177.685 -1.80954 89.4782 -13.3313 -4.0049 -0.385264 71.571 4.85385 -3.17836 14.4821 -2.89975 4.85908 169.953 -1.55527 86.1654 -11.568 -12.4504 -1.54602 68.7938 -4.21215 1.9744 21.9122 -1.36795 3.98107 0.468886 7.42768 -89.9921 12.0248 0.935991 -0.0863558 0.354152 0.93128 -0.127471 -22.1836 0.918667 0.198964 -2.17099 0.918667 0.198964 90.4498 -30.614 -105.641 41.4931 -15.0905 -6.18754 4.52925 -28.787 -13.653 -23.2509 -0.118987 -8.13195 -83.3948 -51.4567 88.8117 -22.4376 19.6791 -18.3562 -1.48364 9.25093 -4.76187 1.45425 -0.218854 -8.21013 1.28777 -0.521625 -2.13112 -3.1074 -0.162593 -3.15997 
26.6171 99.5937 21.4756 -142.477 -82.0738 -143.425 -177.592 -1.57805 89.5635 -13.8942 -4.07245 -0.464322 71.8351 4.84335 -3.16915 14.6294 -2.85957 4.80741 169.779 -1.81117 86.0876 -10.8446 -12.5414 -1.3863 68.882 -4.39093 1.77605 22.1288 -1.76055 4.8655 0.460525 7.42119 -89.9892 12.032 0.920695 -0.0789365 0.361355 0.916335 -0.119388 -22.1763 0.901849 0.201448 -2.1637 0.901847 0.201438 90.4402 -30.8268 -105.583 41.4258 -15.2251 -6.20317 4.12989 -29.5601 -14.0869 -23.9202 -0.124471 -8.14039 -83.4747 -51.2677 88.6738 -22.7847 19.5611 -18.2432 -1.21426 9.77243 -5.10537 1.06476 -0.201546 -8.07764 1.16668 -0.552672 -2.2132 -3.26084 -0.180274 -3.04613 
26.5961 99.5984 21.5235 -142.791 -81.9853 -143.851 -177.633 -1.91738 89.4686 -13.4981 -4.13781 -0.466108 71.7907 4.84424 -3.66247 14.4846 -3.45693 5.58127 169.548 -1.7801 85.8699 -11.1547 -12.9042 -1.26347 68.6778 -4.2179 2.28978 22.5343 -1.13189 3.41634 0.428756 7.42537 -89.9708 12.0236 0.866215 -0.0362917 0.352922 0.863783 -0.0743935 -22.1844 0.837069 0.225734 -2.17179 0.837073 0.225735 90.3417 -30.7246 -105.814 41.6848 -15.1049 -6.03515 4.35277 -28.8977 -13.8828 -24.4988 -0.258158 -7.24276 -83.3642 -51.3198 88.8436 -22.9774 19.3821 -18.1632 -1.14782 9.65421 -5.03001 1.35803 -0.21406 -8.18823 1.20701 -0.923315 -2.62976 -3.14611 -0.483901 -3.12071 
26.5051 99.6434 21.5721 -142.489 -82.1148 -143.482 -177.576 -1.9988 89.6182 -13.1224 -4.13732 -0.467757 71.7176 4.87307 -3.72799 14.3754 -3.37552 5.47464 169.528 -1.54116 85.9754 -11.6522 -12.9414 -1.15755 69.1625 -4.43512 1.77604 21.3564 -1.35468 3.96955 0.4218 7.40925 -89.965 12.0558 0.855125 -0.023868 0.385111 0.853246 -0.0614908 -22.1522 0.822763 0.234252 -2.13954 0.822758 0.234245 90.5006 -30.6728 -105.52 41.9299 -15.2739 -5.9135 4.41238 -29.6357 -13.8718 -24.8129 -0.317067 -6.99485 -83.484 -51.3698 88.6703 -22.8489 19.5592 -18.0227 -1.29287 9.24641 -5.05928 1.02895 -0.209148 -8.36188 1.20878 -2.64544 -3.62648 -2.23481 -2.05894 -3.83812 
26.4509 99.6312 21.6452 -142.305 -82.094 -143.294 -177.524 -1.96244 89.6671 -13.3154 -4.07038 -0.497649 71.785 4.86976 -3.50411 14.3906 -3.02724 5.02385 169.603 -1.76759 86.0651 -11.3861 -12.7883 -1.2087 69.3696 -4.57654 1.53391 20.893 -1.54497 4.41042 0.431951 7.419 -89.9465 12.0361 0.88405 0.0100803 0.365504 0.883637 -0.0288549 -22.1719 0.840149 0.275325 -2.15924 0.840144 0.27532 90.474 -30.7727 -105.536 41.6446 -15.0859 -5.66974 3.82698 -28.7804 -14.5049 -23.2172 -0.116582 -8.16187 -83.4433 -51.2619 88.7199 -22.267 20.3557 -18.0858 -1.69232 8.59433 -5.35622 1.1593 -0.208803 -8.20481 1.12448 -6.40662 -4.64397 -1.47879 -5.65326 -5.66933 
26.4295 99.5944 21.6868 -142.641 -82.3086 -143.628 -177.614 -1.5914 89.6254 -13.7844 -4.10035 -0.385383 71.9682 4.86925 -3.50565 14.4914 -3.00149 4.99114 169.738 -1.77206 86.1078 -10.9018 -12.2287 -1.29949 68.7594 -4.30356 2.21906 22.8063 -1.58926 4.46114 0.395349 7.40963 -89.9053 12.0545 0.830752 0.0980146 0.383858 0.834268 0.0613431 -22.1531 0.762888 0.343173 -2.1405 0.76289 0.343174 90.0865 -31.0567 -106.192 41.4308 -14.8397 -5.45768 3.99165 -28.4001 -14.1999 -23.0477 -0.0895513 -8.27623 -83.4391 -51.2358 88.7234 -22.2312 19.9186 -17.901 -1.59638 8.56097 -5.04337 1.45969 -0.230136 -8.54584 -0.372932 -11.9611 -6.85517 0.617947 -11.0547 -7.84271 
